<svg width="108" height="69" viewBox="0 0 108 69" fill="none" xmlns="http://www.w3.org/2000/svg">
<path d="M13.3744 6.78584L27.967 5.97582C28.8231 6.05297 30.9088 6.80898 31.4692 8.75302L35.0881 5.39724C40.3414 5.1658 51.2683 4.70294 52.9493 4.70294C54.6304 4.70294 55.4398 6.70869 55.6344 7.71157L59.37 3.89292L77.9317 2.73575V4.81865L80.7335 2.3886L87.8546 2.15717L96.3766 21.3661L95.2093 1.57858L103.848 1L107 52.1468L95.6762 64.8756L88.3216 65.1258L80.967 65.3759L72.7952 65.6538L69.5264 65.7649L51.6652 66.3723L35.5551 66.9202L27.5 67.1941L21.0793 67.4124L5.0859 67.9563L3.80176 68L1 19.9775L10.9229 8.86874C11.1175 7.81605 11.9736 6.85144 13.3744 6.78584Z" fill="white"/>
<path d="M31.4692 8.75302C30.9088 6.80898 28.8231 6.05297 27.967 5.97582L13.3744 6.78584C11.9736 6.85144 11.1175 7.81605 10.9229 8.86874M31.4692 8.75302C31.4692 11.0674 33.0257 38.6851 33.9207 52.2625C33.7651 53.034 33.0568 54.6694 31.4692 55.0397C29.8815 55.41 20.5345 55.5797 16.0595 55.6183M31.4692 8.75302L35.0881 5.39724M16.0595 55.6183C15.2812 55.3097 14.1868 55.796 14 54.5M16.0595 55.6183C15.6859 55.896 8.58811 63.9594 5.0859 67.9563M14 54.5C13.8132 53.204 11.7401 22.7162 10.9229 8.86874M14 54.5L18 51L21.3128 47.8653M10.9229 8.86874L1 19.9775L3.80176 68L5.0859 67.9563M107 52.1468L95.6762 64.8756L88.3216 65.1258M107 52.1468L103.848 1L95.2093 1.57858L96.3766 21.3661L87.8546 2.15717L80.7335 2.3886M107 52.1468H99.5286M80.7335 2.3886L84.0022 52.9568M80.7335 2.3886L77.9317 4.81865M84.0022 52.9568L92.0573 52.7254M84.0022 52.9568L72.7952 65.6538M92.0573 52.7254L90.7731 29.582L99.5286 52.1468M92.0573 52.7254L80.967 65.3759M99.5286 52.1468L88.3216 65.1258M88.3216 65.1258L80.967 65.3759M80.967 65.3759L69.5264 65.7649M77.9317 4.81865V2.73575L59.37 3.89292M77.9317 4.81865V10.7202L68.0088 11.1831L68.7093 23.6805L77.815 23.2176L78.1652 30.6235L69.1762 31.0864L69.9934 46.0138L80.1498 45.6667L80.6167 53.304M59.37 3.89292L55.6344 7.71157M59.37 3.89292L60.4207 24.1434H59.4868L59.837 31.5492H61.1211L62.2885 53.8826M55.6344 7.71157C55.4398 6.70869 54.6304 4.70294 52.9493 4.70294C51.2683 4.70294 40.3414 5.1658 35.0881 5.39724M55.6344 7.71157C55.9457 15.2332 56.5683 30.5309 56.5683 31.5492C56.5683 32.5675 55.0896 33.6707 54.3502 34.095L45.1278 34.3264L46.1784 54.6926M35.0881 5.39724L36.489 27.4991H35.4383L35.7885 34.7893H36.9559M36.9559 34.7893L38.1233 54.8083M36.9559 34.7893L44.5441 26.9206M38.1233 54.8083L46.1784 54.6926M38.1233 54.8083L27.5 67.1941M46.1784 54.6926L35.5551 66.9202M62.2885 53.8826L80.6167 53.304M62.2885 53.8826L51.6652 66.3723M80.6167 53.304L69.5264 65.7649M69.5264 65.7649L51.6652 66.3723M51.6652 66.3723L35.5551 66.9202M35.5551 66.9202L27.5 67.1941M27.5 67.1941L21.0793 67.4124M31.4692 55.2712L21.0793 67.4124M21.0793 67.4124L5.0859 67.9563M21.3128 47.8653H25.5154L23.2974 13.9603L19.2115 14.1917L21.3128 47.8653ZM44.5441 26.9206L48.3965 26.6891L47.4626 12.456L43.7269 12.8031L44.5441 26.9206Z" stroke="black" stroke-miterlimit="16"/>
</svg>
