<?xml version="1.0" encoding="UTF-8"?>
<svg width="700pt" height="700pt" version="1.1" viewBox="0 0 700 700" xmlns="http://www.w3.org/2000/svg" xmlns:xlink="http://www.w3.org/1999/xlink">
 <g>
  <path d="m520.8 60.48c0-2.2383-2.2383-4.4805-4.4805-4.4805h-321.44c-2.2383 0-3.9219 1.6797-4.4805 4.4805l-27.441 432.88c0 1.1211 0.55859 2.8008 1.1211 3.3594 0.55859 1.1211 1.6797 1.6797 3.3594 1.6797h372.96c1.1211 0 2.2383-0.55859 3.3594-1.6797 0.55859-1.1211 1.1211-2.2383 1.1211-3.3594zm-348.88 428.4 26.879-423.92h313.6l22.961 423.36h-363.44z"/>
  <path d="m435.68 80.078c-12.32 0-21.84 10.641-21.84 23.52 0 11.199 7.8398 20.719 17.359 22.961v33.602c0 44.801-34.16 81.762-76.16 81.762s-76.16-36.398-76.16-81.762v-33.602c10.078-2.2383 17.359-11.762 17.359-22.961 0-12.879-10.078-23.52-21.84-23.52-11.762 0-21.84 10.641-21.84 23.52 0 11.199 7.8398 20.719 17.359 22.961v33.602c0 49.84 38.078 90.719 84.559 90.719 46.484 0 85.125-40.32 85.125-90.719v-33.602c10.078-2.2383 17.359-11.762 17.359-22.961 0.55859-12.879-9.5195-23.52-21.281-23.52zm-174.16 23.523c0-7.8398 6.1602-14 13.441-14s13.441 6.1602 13.441 14c0 6.1602-3.9219 11.762-8.9609 13.441v-13.441c0-2.8008-1.6797-4.4805-4.4805-4.4805-2.8008 0-4.4805 2.2383-4.4805 4.4805v13.441c-5.0391-1.6836-8.9609-7.2812-8.9609-13.441zm178.08 13.438v-13.441c0-2.8008-1.6797-4.4805-4.4805-4.4805-2.2383 0-4.4805 2.2383-4.4805 4.4805v13.441c-5.0391-1.6797-8.9609-7.2812-8.9609-13.441 0-7.8398 6.1602-14 13.441-14s13.441 6.1602 13.441 14c-0.003906 6.1641-3.3633 11.762-8.9609 13.441z"/>
 </g>
</svg>
